<mxfile host="app.diagrams.net" modified="2024-02-28T15:15:14.575Z" agent="Mozilla/5.0 (Windows NT 10.0; Win64; x64) AppleWebKit/537.36 (KHTML, like Gecko) Chrome/120.0.0.0 Safari/537.36" etag="O2IjNMSB8YgV3WL-nbEK" version="23.1.7" type="github">
  <diagram name="第 1 页" id="fqj0QpMOTDtr7AI1kvU-">
    <mxGraphModel dx="778" dy="788" grid="0" gridSize="10" guides="1" tooltips="1" connect="1" arrows="1" fold="1" page="0" pageScale="1" pageWidth="827" pageHeight="1169" math="0" shadow="0">
      <root>
        <mxCell id="0" />
        <mxCell id="1" parent="0" />
        <mxCell id="KldWpBOgcPNRSOgi1uVf-28" value="" style="rounded=0;whiteSpace=wrap;html=1;fillColor=#d5e8d4;strokeColor=#82b366;" vertex="1" parent="1">
          <mxGeometry x="1290" y="-270" width="314" height="314" as="geometry" />
        </mxCell>
        <mxCell id="KldWpBOgcPNRSOgi1uVf-26" value="" style="rounded=0;whiteSpace=wrap;html=1;fillColor=#fff2cc;strokeColor=#d6b656;" vertex="1" parent="1">
          <mxGeometry x="970" y="-270" width="314" height="314" as="geometry" />
        </mxCell>
        <mxCell id="Qxr8LHmL9CdALlt2KAD3-1" style="edgeStyle=orthogonalEdgeStyle;rounded=0;orthogonalLoop=1;jettySize=auto;html=1;exitX=1;exitY=0.5;exitDx=0;exitDy=0;" parent="1" source="Qxr8LHmL9CdALlt2KAD3-2" target="Qxr8LHmL9CdALlt2KAD3-4" edge="1">
          <mxGeometry relative="1" as="geometry">
            <mxPoint x="427.6442769368491" y="-123" as="targetPoint" />
          </mxGeometry>
        </mxCell>
        <mxCell id="Qxr8LHmL9CdALlt2KAD3-2" value="浏览器里输入网址(域名" style="rounded=0;whiteSpace=wrap;html=1;" parent="1" vertex="1">
          <mxGeometry x="180" y="-153" width="144" height="60" as="geometry" />
        </mxCell>
        <mxCell id="Qxr8LHmL9CdALlt2KAD3-3" value="" style="edgeStyle=orthogonalEdgeStyle;rounded=0;orthogonalLoop=1;jettySize=auto;html=1;" parent="1" source="Qxr8LHmL9CdALlt2KAD3-4" target="Qxr8LHmL9CdALlt2KAD3-5" edge="1">
          <mxGeometry relative="1" as="geometry" />
        </mxCell>
        <mxCell id="Qxr8LHmL9CdALlt2KAD3-4" value="查询DNS服务器" style="rounded=0;whiteSpace=wrap;html=1;" parent="1" vertex="1">
          <mxGeometry x="380.0042769368491" y="-153" width="120" height="60" as="geometry" />
        </mxCell>
        <mxCell id="KldWpBOgcPNRSOgi1uVf-4" value="" style="edgeStyle=orthogonalEdgeStyle;rounded=0;orthogonalLoop=1;jettySize=auto;html=1;" edge="1" parent="1" source="Qxr8LHmL9CdALlt2KAD3-5" target="KldWpBOgcPNRSOgi1uVf-3">
          <mxGeometry relative="1" as="geometry" />
        </mxCell>
        <mxCell id="Qxr8LHmL9CdALlt2KAD3-5" value="解析域名&lt;br&gt;&lt;font style=&quot;font-size: 9px;&quot;&gt;（比如&lt;a style=&quot;border-bottom: 1px solid rgb(129, 133, 143); text-decoration-line: none; cursor: pointer; font-family: -apple-system, BlinkMacSystemFont, &amp;quot;Helvetica Neue&amp;quot;, &amp;quot;PingFang SC&amp;quot;, &amp;quot;Microsoft YaHei&amp;quot;, &amp;quot;Source Han Sans SC&amp;quot;, &amp;quot;Noto Sans CJK SC&amp;quot;, &amp;quot;WenQuanYi Micro Hei&amp;quot;, sans-serif; text-align: start;&quot; data-za-detail-view-id=&quot;1043&quot; rel=&quot;nofollow noreferrer&quot; target=&quot;_blank&quot; class=&quot;external&quot; href=&quot;https://link.zhihu.com/?target=http%3A//chromecj.com&quot;&gt;&lt;span style=&quot;border-color: var(--border-color); background-color: transparent; color: transparent; font-variant-numeric: normal; font-variant-east-asian: normal; font-variant-alternates: normal; font-kerning: auto; font-optical-sizing: auto; font-feature-settings: normal; font-variation-settings: normal; font-variant-position: normal; font-stretch: normal; line-height: 0; font-family: a; text-shadow: none;&quot; class=&quot;invisible&quot;&gt;http://&lt;/span&gt;&lt;span style=&quot;border-color: var(--border-color);&quot; class=&quot;visible&quot;&gt;chromecj.com&lt;/span&gt;&lt;/a&gt;&lt;/font&gt;）" style="whiteSpace=wrap;html=1;rounded=0;" parent="1" vertex="1">
          <mxGeometry x="561.0042769368491" y="-153" width="120" height="60" as="geometry" />
        </mxCell>
        <mxCell id="Qxr8LHmL9CdALlt2KAD3-8" value="&lt;span style=&quot;color: rgb(25, 27, 31); font-family: -apple-system, BlinkMacSystemFont, &amp;quot;Helvetica Neue&amp;quot;, &amp;quot;PingFang SC&amp;quot;, &amp;quot;Microsoft YaHei&amp;quot;, &amp;quot;Source Han Sans SC&amp;quot;, &amp;quot;Noto Sans CJK SC&amp;quot;, &amp;quot;WenQuanYi Micro Hei&amp;quot;, sans-serif; font-size: medium; font-style: normal; font-variant-ligatures: normal; font-variant-caps: normal; font-weight: 400; letter-spacing: normal; orphans: 2; text-align: start; text-indent: 0px; text-transform: none; widows: 2; word-spacing: 0px; -webkit-text-stroke-width: 0px; background-color: rgb(255, 255, 255); text-decoration-thickness: initial; text-decoration-style: initial; text-decoration-color: initial; float: none; display: inline !important;&quot;&gt;而操作系统的 hosts 文件则是有着“类似本地 DNS 服务器”的作用，而且比网络上的 DNS 具有更高的优先级。如果你在 hosts 里面配置了某个域名和IP的对应关系 (比如 127.0.0.1&lt;span&gt;&amp;nbsp;&lt;/span&gt;&lt;/span&gt;&lt;a style=&quot;color: inherit; text-decoration: none; border-bottom: 1px solid rgb(129, 133, 143); cursor: pointer; font-family: -apple-system, BlinkMacSystemFont, &amp;quot;Helvetica Neue&amp;quot;, &amp;quot;PingFang SC&amp;quot;, &amp;quot;Microsoft YaHei&amp;quot;, &amp;quot;Source Han Sans SC&amp;quot;, &amp;quot;Noto Sans CJK SC&amp;quot;, &amp;quot;WenQuanYi Micro Hei&amp;quot;, sans-serif; font-size: medium; font-style: normal; font-variant-ligatures: normal; font-variant-caps: normal; font-weight: 400; letter-spacing: normal; orphans: 2; text-align: start; text-indent: 0px; text-transform: none; widows: 2; word-spacing: 0px; -webkit-text-stroke-width: 0px; background-color: rgb(255, 255, 255);&quot; data-za-detail-view-id=&quot;1043&quot; rel=&quot;nofollow noreferrer&quot; target=&quot;_blank&quot; class=&quot;external&quot; href=&quot;https://link.zhihu.com/?target=http%3A//iplaysoft.com&quot;&gt;&lt;span style=&quot;background-color: transparent; color: transparent; font: 0px / 0 a; text-shadow: none;&quot; class=&quot;invisible&quot;&gt;http://&lt;/span&gt;&lt;span class=&quot;visible&quot;&gt;iplaysoft.com&lt;/span&gt;&lt;span style=&quot;background-color: transparent; color: transparent; font: 0px / 0 a; text-shadow: none;&quot; class=&quot;invisible&quot;&gt;&lt;/span&gt;&lt;/a&gt;&lt;span style=&quot;color: rgb(25, 27, 31); font-family: -apple-system, BlinkMacSystemFont, &amp;quot;Helvetica Neue&amp;quot;, &amp;quot;PingFang SC&amp;quot;, &amp;quot;Microsoft YaHei&amp;quot;, &amp;quot;Source Han Sans SC&amp;quot;, &amp;quot;Noto Sans CJK SC&amp;quot;, &amp;quot;WenQuanYi Micro Hei&amp;quot;, sans-serif; font-size: medium; font-style: normal; font-variant-ligatures: normal; font-variant-caps: normal; font-weight: 400; letter-spacing: normal; orphans: 2; text-align: start; text-indent: 0px; text-transform: none; widows: 2; word-spacing: 0px; -webkit-text-stroke-width: 0px; background-color: rgb(255, 255, 255); text-decoration-thickness: initial; text-decoration-style: initial; text-decoration-color: initial; float: none; display: inline !important;&quot;&gt;)，那么当你在「本机」访问&lt;span&gt;&amp;nbsp;&lt;/span&gt;&lt;/span&gt;&lt;a style=&quot;color: inherit; text-decoration: none; border-bottom: 1px solid rgb(129, 133, 143); cursor: pointer; font-family: -apple-system, BlinkMacSystemFont, &amp;quot;Helvetica Neue&amp;quot;, &amp;quot;PingFang SC&amp;quot;, &amp;quot;Microsoft YaHei&amp;quot;, &amp;quot;Source Han Sans SC&amp;quot;, &amp;quot;Noto Sans CJK SC&amp;quot;, &amp;quot;WenQuanYi Micro Hei&amp;quot;, sans-serif; font-size: medium; font-style: normal; font-variant-ligatures: normal; font-variant-caps: normal; font-weight: 400; letter-spacing: normal; orphans: 2; text-align: start; text-indent: 0px; text-transform: none; widows: 2; word-spacing: 0px; -webkit-text-stroke-width: 0px; background-color: rgb(255, 255, 255);&quot; data-za-detail-view-id=&quot;1043&quot; rel=&quot;nofollow noreferrer&quot; target=&quot;_blank&quot; class=&quot;external&quot; href=&quot;https://link.zhihu.com/?target=http%3A//iplaysoft.com&quot;&gt;&lt;span style=&quot;background-color: transparent; color: transparent; font: 0px / 0 a; text-shadow: none;&quot; class=&quot;invisible&quot;&gt;http://&lt;/span&gt;&lt;span class=&quot;visible&quot;&gt;iplaysoft.com&lt;/span&gt;&lt;span style=&quot;background-color: transparent; color: transparent; font: 0px / 0 a; text-shadow: none;&quot; class=&quot;invisible&quot;&gt;&lt;/span&gt;&lt;/a&gt;&lt;span style=&quot;color: rgb(25, 27, 31); font-family: -apple-system, BlinkMacSystemFont, &amp;quot;Helvetica Neue&amp;quot;, &amp;quot;PingFang SC&amp;quot;, &amp;quot;Microsoft YaHei&amp;quot;, &amp;quot;Source Han Sans SC&amp;quot;, &amp;quot;Noto Sans CJK SC&amp;quot;, &amp;quot;WenQuanYi Micro Hei&amp;quot;, sans-serif; font-size: medium; font-style: normal; font-variant-ligatures: normal; font-variant-caps: normal; font-weight: 400; letter-spacing: normal; orphans: 2; text-align: start; text-indent: 0px; text-transform: none; widows: 2; word-spacing: 0px; -webkit-text-stroke-width: 0px; background-color: rgb(255, 255, 255); text-decoration-thickness: initial; text-decoration-style: initial; text-decoration-color: initial; float: none; display: inline !important;&quot;&gt;&lt;span&gt;&amp;nbsp;&lt;/span&gt;时，系统首先会从 hosts 里面解析出 127.0.0.1 这个 IP，而不会再去查询网络上的 DNS 服务器。注意：hosts 文件仅对本机生效，对其他电脑和网站本身不造成任何影响。&lt;/span&gt;" style="text;whiteSpace=wrap;html=1;" parent="1" vertex="1">
          <mxGeometry x="177.0024711100261" y="-23.002807210286377" width="550" height="137" as="geometry" />
        </mxCell>
        <mxCell id="Qxr8LHmL9CdALlt2KAD3-9" value="&lt;span style=&quot;color: rgb(25, 27, 31); font-family: -apple-system, BlinkMacSystemFont, &amp;quot;Helvetica Neue&amp;quot;, &amp;quot;PingFang SC&amp;quot;, &amp;quot;Microsoft YaHei&amp;quot;, &amp;quot;Source Han Sans SC&amp;quot;, &amp;quot;Noto Sans CJK SC&amp;quot;, &amp;quot;WenQuanYi Micro Hei&amp;quot;, sans-serif; font-size: medium; font-style: normal; font-variant-ligatures: normal; font-variant-caps: normal; font-weight: 400; letter-spacing: normal; orphans: 2; text-align: start; text-indent: 0px; text-transform: none; widows: 2; word-spacing: 0px; -webkit-text-stroke-width: 0px; background-color: rgb(255, 255, 255); text-decoration-thickness: initial; text-decoration-style: initial; text-decoration-color: initial; float: none; display: inline !important;&quot;&gt;一般来说，当用户在电脑浏览器里输入网址(域名)后，系统需要通过查询网络上的 DNS 服务器，才能将域名 (比如&lt;/span&gt;&lt;a style=&quot;color: inherit; text-decoration: none; border-bottom: 1px solid rgb(129, 133, 143); cursor: pointer; font-family: -apple-system, BlinkMacSystemFont, &amp;quot;Helvetica Neue&amp;quot;, &amp;quot;PingFang SC&amp;quot;, &amp;quot;Microsoft YaHei&amp;quot;, &amp;quot;Source Han Sans SC&amp;quot;, &amp;quot;Noto Sans CJK SC&amp;quot;, &amp;quot;WenQuanYi Micro Hei&amp;quot;, sans-serif; font-size: medium; font-style: normal; font-variant-ligatures: normal; font-variant-caps: normal; font-weight: 400; letter-spacing: normal; orphans: 2; text-align: start; text-indent: 0px; text-transform: none; widows: 2; word-spacing: 0px; -webkit-text-stroke-width: 0px; background-color: rgb(255, 255, 255);&quot; data-za-detail-view-id=&quot;1043&quot; rel=&quot;nofollow noreferrer&quot; target=&quot;_blank&quot; class=&quot;external&quot; href=&quot;https://link.zhihu.com/?target=http%3A//chromecj.com&quot;&gt;&lt;span style=&quot;background-color: transparent; color: transparent; font: 0px / 0 a; text-shadow: none;&quot; class=&quot;invisible&quot;&gt;http://&lt;/span&gt;&lt;span class=&quot;visible&quot;&gt;chromecj.com&lt;/span&gt;&lt;span style=&quot;background-color: transparent; color: transparent; font: 0px / 0 a; text-shadow: none;&quot; class=&quot;invisible&quot;&gt;&lt;/span&gt;&lt;/a&gt;&lt;span style=&quot;color: rgb(25, 27, 31); font-family: -apple-system, BlinkMacSystemFont, &amp;quot;Helvetica Neue&amp;quot;, &amp;quot;PingFang SC&amp;quot;, &amp;quot;Microsoft YaHei&amp;quot;, &amp;quot;Source Han Sans SC&amp;quot;, &amp;quot;Noto Sans CJK SC&amp;quot;, &amp;quot;WenQuanYi Micro Hei&amp;quot;, sans-serif; font-size: medium; font-style: normal; font-variant-ligatures: normal; font-variant-caps: normal; font-weight: 400; letter-spacing: normal; orphans: 2; text-align: start; text-indent: 0px; text-transform: none; widows: 2; word-spacing: 0px; -webkit-text-stroke-width: 0px; background-color: rgb(255, 255, 255); text-decoration-thickness: initial; text-decoration-style: initial; text-decoration-color: initial; float: none; display: inline !important;&quot;&gt;) 解析成对应的 IP 地址，浏览器通过 IP 地址才能找到该网站所在的服务器并进行访问。&lt;/span&gt;" style="text;whiteSpace=wrap;html=1;" parent="1" vertex="1">
          <mxGeometry x="167.002450764974" y="-243.00231160481763" width="550" height="80" as="geometry" />
        </mxCell>
        <mxCell id="Qxr8LHmL9CdALlt2KAD3-10" value="什么是Host？" style="text;html=1;align=center;verticalAlign=middle;resizable=0;points=[];autosize=1;strokeColor=none;fillColor=none;" parent="1" vertex="1">
          <mxGeometry x="148" y="-284" width="91" height="26" as="geometry" />
        </mxCell>
        <mxCell id="KldWpBOgcPNRSOgi1uVf-3" value="网站IP地址" style="whiteSpace=wrap;html=1;rounded=0;" vertex="1" parent="1">
          <mxGeometry x="706.0042769368491" y="-155" width="120" height="60" as="geometry" />
        </mxCell>
        <mxCell id="KldWpBOgcPNRSOgi1uVf-9" style="edgeStyle=orthogonalEdgeStyle;rounded=0;orthogonalLoop=1;jettySize=auto;html=1;" edge="1" parent="1" source="KldWpBOgcPNRSOgi1uVf-7" target="KldWpBOgcPNRSOgi1uVf-10">
          <mxGeometry relative="1" as="geometry">
            <mxPoint x="1186.8750305175781" y="-142.6602121988932" as="targetPoint" />
            <Array as="points">
              <mxPoint x="1128" y="-178" />
              <mxPoint x="1128" y="-178" />
            </Array>
          </mxGeometry>
        </mxCell>
        <mxCell id="KldWpBOgcPNRSOgi1uVf-11" value="1、查询" style="edgeLabel;html=1;align=center;verticalAlign=middle;resizable=0;points=[];" vertex="1" connectable="0" parent="KldWpBOgcPNRSOgi1uVf-9">
          <mxGeometry x="-0.2114" y="2" relative="1" as="geometry">
            <mxPoint x="2" y="-8" as="offset" />
          </mxGeometry>
        </mxCell>
        <mxCell id="KldWpBOgcPNRSOgi1uVf-17" style="edgeStyle=orthogonalEdgeStyle;rounded=0;orthogonalLoop=1;jettySize=auto;html=1;exitX=1;exitY=0.75;exitDx=0;exitDy=0;" edge="1" parent="1" source="KldWpBOgcPNRSOgi1uVf-7" target="KldWpBOgcPNRSOgi1uVf-15">
          <mxGeometry relative="1" as="geometry">
            <Array as="points">
              <mxPoint x="1064" y="-76" />
              <mxPoint x="1124" y="-76" />
            </Array>
          </mxGeometry>
        </mxCell>
        <mxCell id="KldWpBOgcPNRSOgi1uVf-7" value="电脑浏览器" style="rounded=0;whiteSpace=wrap;html=1;" vertex="1" parent="1">
          <mxGeometry x="990" y="-211" width="74" height="153" as="geometry" />
        </mxCell>
        <mxCell id="KldWpBOgcPNRSOgi1uVf-12" style="edgeStyle=orthogonalEdgeStyle;rounded=0;orthogonalLoop=1;jettySize=auto;html=1;curved=1;exitX=0;exitY=0.5;exitDx=0;exitDy=0;" edge="1" parent="1" source="KldWpBOgcPNRSOgi1uVf-10">
          <mxGeometry relative="1" as="geometry">
            <mxPoint x="1185" y="-133" as="sourcePoint" />
            <mxPoint x="1064" y="-133.5" as="targetPoint" />
          </mxGeometry>
        </mxCell>
        <mxCell id="KldWpBOgcPNRSOgi1uVf-13" value="2、解析域名 ==》IP地址" style="edgeLabel;html=1;align=center;verticalAlign=middle;resizable=0;points=[];" vertex="1" connectable="0" parent="KldWpBOgcPNRSOgi1uVf-12">
          <mxGeometry x="0.0292" relative="1" as="geometry">
            <mxPoint x="-4" y="14" as="offset" />
          </mxGeometry>
        </mxCell>
        <mxCell id="KldWpBOgcPNRSOgi1uVf-10" value="DNS服务器" style="rounded=0;whiteSpace=wrap;html=1;" vertex="1" parent="1">
          <mxGeometry x="1188" y="-211" width="77" height="153" as="geometry" />
        </mxCell>
        <mxCell id="KldWpBOgcPNRSOgi1uVf-15" value="3、通过IP地址访问网站的服务器" style="rounded=0;whiteSpace=wrap;html=1;" vertex="1" parent="1">
          <mxGeometry x="1063.9950712076825" y="-36.99633748372388" width="120" height="60" as="geometry" />
        </mxCell>
        <mxCell id="KldWpBOgcPNRSOgi1uVf-38" style="edgeStyle=orthogonalEdgeStyle;rounded=0;orthogonalLoop=1;jettySize=auto;html=1;" edge="1" parent="1" source="KldWpBOgcPNRSOgi1uVf-21" target="KldWpBOgcPNRSOgi1uVf-25">
          <mxGeometry relative="1" as="geometry" />
        </mxCell>
        <mxCell id="KldWpBOgcPNRSOgi1uVf-39" value="从host中拿到IP地址" style="edgeLabel;html=1;align=center;verticalAlign=middle;resizable=0;points=[];" vertex="1" connectable="0" parent="KldWpBOgcPNRSOgi1uVf-38">
          <mxGeometry x="-0.1839" y="3" relative="1" as="geometry">
            <mxPoint x="12" y="-9" as="offset" />
          </mxGeometry>
        </mxCell>
        <mxCell id="KldWpBOgcPNRSOgi1uVf-21" value="电脑浏览器" style="rounded=0;whiteSpace=wrap;html=1;" vertex="1" parent="1">
          <mxGeometry x="1304" y="-207" width="74" height="153" as="geometry" />
        </mxCell>
        <mxCell id="KldWpBOgcPNRSOgi1uVf-25" value="直接访问网站的服务器" style="rounded=0;whiteSpace=wrap;html=1;" vertex="1" parent="1">
          <mxGeometry x="1491" y="-206" width="74" height="151" as="geometry" />
        </mxCell>
        <mxCell id="KldWpBOgcPNRSOgi1uVf-27" value="没配置host" style="text;html=1;align=center;verticalAlign=middle;whiteSpace=wrap;rounded=0;" vertex="1" parent="1">
          <mxGeometry x="1081" y="-249" width="79" height="30" as="geometry" />
        </mxCell>
        <mxCell id="KldWpBOgcPNRSOgi1uVf-29" value="&lt;div class=&quot;lake-content&quot;&gt;置了某个域名和IP的对应关系&lt;/div&gt;" style="text;html=1;align=center;verticalAlign=middle;whiteSpace=wrap;rounded=0;" vertex="1" parent="1">
          <mxGeometry x="1353" y="-256" width="163" height="30" as="geometry" />
        </mxCell>
      </root>
    </mxGraphModel>
  </diagram>
</mxfile>
